<?xml version="1.0" encoding="UTF-8"?>
<svg width="67.733mm" height="67.733mm" version="1.1" viewBox="0 0 67.733 67.733" xml:space="preserve" xmlns="http://www.w3.org/2000/svg"><defs><style>.cls-1{fill:#fff;}</style></defs><g transform="translate(95.17 -165.95)"><path d="m-61.275 165.95c-19.061 0-34.469 15.522-34.469 34.725 0 15.35 9.8728 28.343 23.569 32.942 1.7124 0.34574 2.3396-0.74717 2.3396-1.6665 0-0.80503-0.05645-3.5645-0.05645-6.4396-9.5885 2.0701-11.585-4.1395-11.585-4.1395-1.5409-4.0245-3.8241-5.0588-3.8241-5.0588-3.1383-2.1272 0.22859-2.1272 0.22859-2.1272 3.4812 0.23013 5.3079 3.5645 5.3079 3.5645 3.0812 5.2888 8.0461 3.7945 10.044 2.8744 0.28504-2.2422 1.1987-3.7945 2.1689-4.6566-7.6475-0.80504-15.694-3.7945-15.694-17.133 0-3.7944 1.3688-6.8989 3.5376-9.3133-0.34219-0.86218-1.5409-4.4273 0.3429-9.199 0 0 2.9104-0.92005 9.4728 3.5644a33.14 33.14 0 0 1 8.6176-1.15c2.9104 0 5.8773 0.40288 8.6169 1.15 6.5631-4.4845 9.4735-3.5644 9.4735-3.5644 1.8838 4.7716 0.68439 8.3368 0.34219 9.199 2.226 2.4144 3.5383 5.5189 3.5383 9.3133 0 13.338-8.0461 16.27-15.751 17.133 1.2559 1.0922 2.3396 3.1616 2.3396 6.4389 0 4.6566-0.05645 8.394-0.05645 9.5433 0 0.92005 0.62794 2.013 2.3396 1.6679 13.696-4.6002 23.569-17.593 23.569-32.943 0.05645-19.203-15.409-34.725-34.412-34.725z" clip-rule="evenodd" fill="#fff" fill-rule="evenodd" stroke-width=".70555"/></g></svg>
