<?xml version="1.0" encoding="UTF-8"?>
<svg width="67.733mm" height="67.733mm" version="1.1" viewBox="0 0 67.733 67.733" xml:space="preserve" xmlns="http://www.w3.org/2000/svg"><defs><style>.cls-1{fill:#fff;}</style></defs><g transform="translate(95.17 -165.95)"><path class="cls-1" d="m-75.33 166.18c-3.6034 0.17001-6.0642 0.74507-8.2154 1.5904-2.2264 0.86767-4.1135 2.032-5.991 3.9164-1.8776 1.8843-3.0338 3.7728-3.8954 6.0026-0.8338 2.156-1.3987 4.6188-1.5579 8.2242-0.15917 3.6055-0.1944 4.7644-0.17678 13.961 0.01761 9.1969 0.05825 10.35 0.233 13.963 0.17204 3.6028 0.74507 6.0628 1.5904 8.2147 0.86902 2.2264 2.032 4.1128 3.917 5.991 1.885 1.8782 3.7721 3.0318 6.0073 3.8947 2.1539 0.83244 4.6174 1.4 8.2222 1.5579 3.6048 0.15782 4.7651 0.19439 13.959 0.17678 9.1942-0.0176 10.352-0.0582 13.964-0.22961 3.6122-0.17137 6.0594-0.74846 8.212-1.5897 2.2264-0.87105 4.1141-2.032 5.991-3.9177 1.8769-1.8857 3.0324-3.7755 3.8933-6.0066 0.83448-2.1539 1.4014-4.6174 1.5579-8.2195 0.15782-3.6149 0.19507-4.7691 0.17746-13.965-0.01761-9.1955-0.05893-10.348-0.23029-13.96-0.17137-3.6116-0.74507-6.0642-1.5897-8.2174-0.87038-2.2264-2.032-4.1114-3.9164-5.991s-3.7755-3.0345-6.0059-3.8933c-2.1553-0.8338-4.6174-1.4021-8.2222-1.5579-3.6048-0.15579-4.7651-0.19575-13.963-0.17814-9.1975 0.0176-10.349 0.0569-13.961 0.23301m0.39556 61.223c-3.302-0.14359-5.0949-0.69223-6.2897-1.1515-1.5823-0.6096-2.7093-1.3465-3.9001-2.5258-1.1908-1.1792-1.9223-2.3104-2.54-3.8893-0.46398-1.1948-1.0228-2.9857-1.1772-6.2877-0.16798-3.5689-0.2032-4.6404-0.22284-13.682-0.01963-9.0418 0.0149-10.112 0.17137-13.682 0.14088-3.2993 0.69291-5.0942 1.1515-6.2884 0.6096-1.5843 1.3438-2.7093 2.5258-3.8994s2.3097-1.923 3.8899-2.5407c1.1935-0.46601 2.9843-1.0201 6.285-1.1772 3.5716-0.16934 4.6418-0.2032 13.682-0.22285 9.0404-0.0196 10.113 0.0142 13.686 0.17137 3.2993 0.14359 5.0949 0.6902 6.2877 1.1515 1.5829 0.6096 2.7093 1.3418 3.8994 2.5258 1.1901 1.184 1.9236 2.3077 2.5414 3.8913 0.46668 1.1901 1.0207 2.9803 1.1765 6.283 0.17001 3.5716 0.20862 4.6424 0.22488 13.682 0.01626 9.0397-0.01557 10.113-0.17204 13.682-0.14427 3.302-0.69156 5.0956-1.1515 6.2918-0.6096 1.5816-1.3445 2.7093-2.5271 3.8987-1.1826 1.1894-2.309 1.9223-3.8899 2.54-1.1921 0.46533-2.985 1.0207-6.283 1.1779-3.5716 0.16798-4.6418 0.2032-13.686 0.22284-9.0438 0.0196-10.111-0.0169-13.682-0.17137m27.608-45.694a4.064 4.064 0 1 0 4.0559-4.0708 4.064 4.064 0 0 0-4.0559 4.0708m-31.367 18.134c0.01897 9.6046 7.8192 17.373 17.422 17.355 9.6026-0.0183 17.376-7.8178 17.358-17.422-0.01828-9.6046-7.8205-17.375-17.424-17.356-9.6039 0.019-17.374 7.8205-17.355 17.424m6.1001-0.0122a11.289 11.289 0 1 1 11.312 11.267 11.288 11.288 0 0 1-11.312-11.267" stroke-width=".067734"/></g></svg>
