<?xml version="1.0" encoding="UTF-8"?>
<svg width="67.733mm" height="67.733mm" version="1.1" viewBox="0 0 67.733 67.733" xmlns="http://www.w3.org/2000/svg">
 <g transform="translate(-3,-3)">
  <path d="m16.622 32.313c5.4187 10.649 14.149 19.342 24.798 24.798l8.2785-8.2785c1.016-1.016 2.5212-1.3547 3.8382-0.90311 4.2145 1.3923 8.7677 2.1449 13.434 2.1449 2.0696 0 3.763 1.6933 3.763 3.763v13.133c0 2.0696-1.6933 3.763-3.763 3.763-35.334 0-63.97-28.636-63.97-63.97 0-2.0696 1.6933-3.763 3.763-3.763h13.17c2.0696 0 3.763 1.6933 3.763 3.763 0 4.7037 0.75259 9.2193 2.1449 13.434 0.41393 1.317 0.11289 2.7846-0.94074 3.8382z" fill="#fff" stroke-linecap="round" stroke-linejoin="round" stroke-width="2.8222" style="paint-order:fill markers stroke"/>
 </g>
</svg>
