<?xml version="1.0" encoding="UTF-8" standalone="no"?>
<!-- Created with Inkscape (http://www.inkscape.org/) -->

<svg
   width="37.369934mm"
   height="28.978813mm"
   viewBox="0 0 37.369934 28.978813"
   version="1.1"
   id="svg5"
   xml:space="preserve"
   inkscape:version="1.2.2 (732a01da63, 2022-12-09)"
   sodipodi:docname="logo_footer.svg"
   xmlns:inkscape="http://www.inkscape.org/namespaces/inkscape"
   xmlns:sodipodi="http://sodipodi.sourceforge.net/DTD/sodipodi-0.dtd"
   xmlns="http://www.w3.org/2000/svg"
   xmlns:svg="http://www.w3.org/2000/svg"><sodipodi:namedview
     id="namedview7"
     pagecolor="#505050"
     bordercolor="#ffffff"
     borderopacity="1"
     inkscape:showpageshadow="0"
     inkscape:pageopacity="0"
     inkscape:pagecheckerboard="1"
     inkscape:deskcolor="#505050"
     inkscape:document-units="mm"
     showgrid="false"
     inkscape:zoom="2.7652075"
     inkscape:cx="-1.4465461"
     inkscape:cy="45.385382"
     inkscape:window-width="1895"
     inkscape:window-height="961"
     inkscape:window-x="0"
     inkscape:window-y="0"
     inkscape:window-maximized="0"
     inkscape:current-layer="layer1" /><defs
     id="defs2" /><g
     inkscape:label="Camada 1"
     inkscape:groupmode="layer"
     id="layer1"
     transform="translate(0,1)"><g
       aria-label="e"
       transform="scale(1.0194192,0.98095073)"
       id="text900"
       style="font-size:11.0739px;font-family:Delius;-inkscape-font-specification:'Delius, Normal';fill:#f9f9f9;stroke-width:0.245238;stroke-linecap:round;stroke-linejoin:bevel" /><g
       id="g12110"
       transform="translate(0.1249933,-2)"><g
         id="g1736"
         transform="translate(-4.4672393,-14.791705)"
         style="fill:#f9f9f9;stroke:#808080;stroke-width:0.5;stroke-linecap:round;stroke-linejoin:round;stroke-dasharray:none;paint-order:stroke markers fill"><path
           id="path962"
           style="font-size:11.2889px;font-family:Gantari;-inkscape-font-specification:'Gantari, Normal';fill:#f9f9f9;stroke:#e6e6e6;stroke-width:0.5;stroke-linecap:round;stroke-linejoin:round;stroke-dasharray:none;stroke-opacity:1;paint-order:stroke markers fill"
           d="m 38.718978,40.893859 c -0.534341,0 -1.008869,-0.112889 -1.422796,-0.338667 -0.413926,-0.233303 -0.737541,-0.556918 -0.970845,-0.970845 -0.233304,-0.413927 -0.349956,-0.899349 -0.349956,-1.456268 0,-0.556919 0.116652,-1.042342 0.349956,-1.456268 0.233304,-0.413927 0.556919,-0.733779 0.970845,-0.959557 0.413927,-0.233304 0.888455,-0.349956 1.422796,-0.349956 0.541867,0 1.016,0.116652 1.422401,0.349956 0.413927,0.225778 0.737542,0.54563 0.970845,0.959557 0.233304,0.413926 0.349956,0.899349 0.349956,1.456268 0,0.556919 -0.116652,1.042341 -0.349956,1.456268 -0.233303,0.413927 -0.556918,0.737542 -0.970845,0.970845 -0.406401,0.225778 -0.880534,0.338667 -1.422401,0.338667 z m 0,-0.801511 c 0.361245,0 0.677334,-0.07902 0.948267,-0.237067 0.270934,-0.158045 0.48166,-0.383823 0.632179,-0.677334 0.150519,-0.293512 0.225778,-0.643468 0.225778,-1.049868 0,-0.406401 -0.07526,-0.756357 -0.225778,-1.049868 -0.150519,-0.293511 -0.361245,-0.519289 -0.632179,-0.677334 -0.270933,-0.158045 -0.587022,-0.237067 -0.948267,-0.237067 -0.361245,0 -0.677729,0.07902 -0.948662,0.237067 -0.270933,0.158045 -0.481659,0.383823 -0.632178,0.677334 -0.150519,0.293511 -0.225778,0.643467 -0.225778,1.049868 0,0.4064 0.07526,0.756356 0.225778,1.049868 0.150519,0.293511 0.361245,0.519289 0.632178,0.677334 0.270933,0.158045 0.587417,0.237067 0.948662,0.237067 z m -8.873466,0.688622 v -7.540985 h 0.914401 v 2.484969 c 0.16557,-0.278459 0.395111,-0.496711 0.688622,-0.654756 0.301037,-0.158045 0.666045,-0.237067 1.095024,-0.237067 0.609601,0 1.087497,0.173097 1.43369,0.51929 0.346193,0.346193 0.51929,0.891823 0.51929,1.63689 v 3.791659 h -0.914401 v -3.690059 c 0,-0.511763 -0.105363,-0.880534 -0.31609,-1.106312 -0.2032,-0.233304 -0.519289,-0.349956 -0.948267,-0.349956 -0.496712,0 -0.880535,0.173097 -1.151468,0.51929 -0.270933,0.338667 -0.4064,0.801511 -0.4064,1.388534 v 3.238503 z m -2.698052,0 v -7.540985 h 0.914401 v 7.540985 z m -4.22205,0.112889 c -0.534341,0 -1.008475,-0.112889 -1.422402,-0.338667 -0.413926,-0.233303 -0.737541,-0.556918 -0.970845,-0.970845 -0.233304,-0.413927 -0.349956,-0.899349 -0.349956,-1.456268 0,-0.556919 0.116652,-1.042342 0.349956,-1.456268 0.233304,-0.413927 0.556919,-0.733779 0.970845,-0.959557 0.413927,-0.233304 0.888061,-0.349956 1.422402,-0.349956 0.541867,0 1.016001,0.116652 1.422401,0.349956 0.413927,0.225778 0.737542,0.54563 0.970846,0.959557 0.233304,0.413926 0.349956,0.899349 0.349956,1.456268 0,0.556919 -0.116652,1.042341 -0.349956,1.456268 -0.233304,0.413927 -0.556919,0.737542 -0.970846,0.970845 -0.4064,0.225778 -0.880534,0.338667 -1.422401,0.338667 z m 0,-0.801511 c 0.361245,0 0.677334,-0.07902 0.948267,-0.237067 0.270934,-0.158045 0.48166,-0.383823 0.632179,-0.677334 0.150519,-0.293512 0.225778,-0.643468 0.225778,-1.049868 0,-0.406401 -0.07526,-0.756357 -0.225778,-1.049868 C 24.355337,36.7847 24.144611,36.558922 23.873677,36.400877 23.602744,36.242832 23.286655,36.16381 22.92541,36.16381 c -0.361245,0 -0.677334,0.07902 -0.948268,0.237067 -0.270933,0.158045 -0.481659,0.383823 -0.632178,0.677334 -0.150519,0.293511 -0.225778,0.643467 -0.225778,1.049868 0,0.4064 0.07526,0.756356 0.225778,1.049868 0.150519,0.293511 0.361245,0.519289 0.632178,0.677334 0.270934,0.158045 0.587023,0.237067 0.948268,0.237067 z M 18.110707,37.21149 c -0.0029,-0.667654 -0.614738,-1.039534 -1.151473,-1.042703 -0.536735,-0.0032 -0.914404,0.18122 -1.253073,0.543319 -0.338669,0.354855 -0.556922,0.670681 -0.654759,1.14865 0.828501,0.158783 3.062545,0.101533 3.059305,-0.649266 z m -1.253074,-1.849212 c 0.609603,0 1.102554,0.162944 1.478852,0.488833 0.383825,0.325888 0.575737,0.749543 0.575737,1.270965 0,0.521422 -0.237068,0.819973 -0.711204,1.095168 -1.040522,0.445038 -2.168723,0.520872 -3.160905,0.33874 0.04515,0.506937 0.240828,0.945076 0.587025,1.314417 0.353721,0.362098 0.745071,0.543147 1.174051,0.543147 0.255883,0 0.49295,-0.03259 0.711203,-0.09776 0.218253,-0.07242 0.383825,-0.148461 0.496714,-0.228122 0.301039,-0.224501 0.496714,-0.336752 0.587025,-0.336752 0.09784,0 0.173098,0.02897 0.225779,0.0869 0.06021,0.05069 0.09031,0.115871 0.09031,0.195533 0,0.202775 -0.218253,0.434519 -0.654759,0.69523 -0.42898,0.26071 -0.89559,0.391065 -1.399829,0.391065 -0.782701,0 -1.403593,-0.264332 -1.862676,-0.792995 -0.459084,-0.528663 -0.707441,-1.165955 -0.74507,-1.911878 -0.398877,-0.115871 -0.598315,-0.304163 -0.598315,-0.564874 0,-0.108629 0.0301,-0.191911 0.09031,-0.249847 0.200105,-0.154599 0.395998,-0.07123 0.575736,0 0.165571,-0.651777 0.477899,-1.187683 0.936983,-1.607717 0.46661,-0.420034 1.000953,-0.630051 1.60303,-0.630051 z M 4.592246,40.78097 v -5.305783 h 0.8805343 v 0.745068 c 0.1505187,-0.270934 0.3574818,-0.48166 0.6208895,-0.632179 0.2709336,-0.150519 0.5983117,-0.225778 0.9821343,-0.225778 0.3913485,0 0.8221958,0.08655 1.0931295,0.259645 0.2709337,0.165571 0.4703709,0.398875 0.5983113,0.699912 0.165571,-0.316089 0.402638,-0.553156 0.711201,-0.711201 0.316089,-0.165571 0.6773341,-0.248356 1.0837341,-0.248356 0.587023,0 0.953925,0.173097 1.300118,0.51929 0.346193,0.346193 0.519289,0.891823 0.519289,1.63689 v 3.262492 h -0.9144 v -3.160892 c 0,-0.511763 -0.1016,-0.880534 -0.304801,-1.106312 -0.2032,-0.233304 -0.397005,-0.349956 -0.780828,-0.349956 -0.4365041,0 -0.7714081,0.173097 -1.0047121,0.51929 -0.225778,0.338667 -0.338667,0.801511 -0.338667,1.388534 V 40.78097 H 8.123778 v -3.160892 c 0,-0.511763 -0.1016001,-0.880534 -0.3048003,-1.106312 C 7.6157775,36.280462 7.2263228,36.16381 6.8500261,36.16381 c -0.4440301,0 -0.7789341,0.173097 -1.0047121,0.51929 -0.225778,0.338667 -0.338667,0.801511 -0.338667,1.388534 v 2.709336 z"
           sodipodi:nodetypes="scssscscssscsssssssssssssscccccsssccscscscccccccscssscscssscssssssssssssssszccscscccsccscscsscssccsscccccscccsssccscscsccscscsccc" /><text
           xml:space="preserve"
           style="font-style:normal;font-variant:normal;font-weight:bold;font-stretch:normal;font-size:2.55492px;font-family:Calibri;-inkscape-font-specification:'Calibri, Bold';font-variant-ligatures:normal;font-variant-caps:normal;font-variant-numeric:normal;font-variant-east-asian:normal;fill:#f9f9f9;fill-opacity:1;stroke:none;stroke-width:0.1;stroke-linecap:round;stroke-linejoin:round;stroke-dasharray:none;stroke-opacity:1;paint-order:stroke markers fill"
           x="4.5135474"
           y="42.620449"
           id="text1225"
           transform="scale(0.95261666,1.0497402)"><tspan
             sodipodi:role="line"
             id="tspan1223"
             style="font-style:normal;font-variant:normal;font-weight:bold;font-stretch:normal;font-size:2.55492px;font-family:Calibri;-inkscape-font-specification:'Calibri, Bold';font-variant-ligatures:normal;font-variant-caps:normal;font-variant-numeric:normal;font-variant-east-asian:normal;fill:#f9f9f9;fill-opacity:1;stroke:none;stroke-width:0.1;stroke-linecap:round;stroke-linejoin:round;stroke-dasharray:none;paint-order:stroke markers fill"
             x="4.5135474"
             y="42.620449">PLATAFORMA DE TELEATENDIMENTO</tspan></text></g><g
         id="g6693"
         transform="translate(0,0.999999)"><g
           id="g995"
           style="stroke-width:0.4;stroke-dasharray:none"
           transform="translate(-4.467246,-15.850039)"><path
             id="path452"
             style="fill:#f9f9f9;fill-opacity:0.25;stroke-width:0.4;stroke-linecap:round;stroke-linejoin:bevel;stroke-dasharray:none"
             d="m 31.868463,23.398991 c -0.447671,4.24663 -2.004248,5.681334 -4.491176,6.347703 -2.486927,0.666371 -2.664085,-1.836545 -4.6757,-0.867819 -2.011617,0.968728 -3.512042,0.04471 -4.934343,-2.418794 -1.36027,-2.356057 -3.902866,-1.430309 -3.578051,-4.828656 0.324814,-3.398346 5.159543,-5.672814 8.920572,-5.702117 3.761029,-0.02931 9.206369,3.223055 8.758698,7.469683 z"
             sodipodi:nodetypes="zzzszzz" /></g><path
           id="path2100"
           style="fill:none;fill-opacity:1;stroke:#f9f9f9;stroke-width:0.4;stroke-linecap:round;stroke-linejoin:bevel;stroke-dasharray:none;stroke-opacity:1"
           d="M 26.311527,5.0485935 C 26.435516,5.5113257 22.099007,6.7915943 21.855,5.8809477 21.610993,4.970301 26.187538,4.5858614 26.311527,5.0485935 Z m 1.115627,0.965502 C 24.248662,7.5724445 20.841737,7.693805 20.195,6.269 19.548263,4.844195 22.564774,3.8093907 26.299936,3.8939637 m -4.882633,9.8499253 c 1.576342,0.5838 3.516349,-0.78836 3.516349,-0.78836 m 2.586196,-5.52768 C 23.249471,9.893353 18.359,8.651794 18.359,5.852001 c 0,-2.799793 7.280486,-2.970162 7.280486,-2.970162 m 1.76529,6.196676 c -6.422,2.400057 -10.902455,-0.05394 -10.902455,-3.293514 0,-2.856839 4.353533,-3.865486 8.15146,-3.873206 m 2.324998,8.638133 c -9.153985,2.452803 -11.8778,-1.98745 -11.945458,-4.651927 -0.06766,-2.664478 1.292216,-4.832445 7.876852,-4.90878 m 3.090112,10.874071 c -9.17038,2.457196 -12.380606,-3.201881 -12.380606,-6.140291 0,-2.60352 1.625539,-5.523 7.100846,-5.523 M 16.99656,12.441688 C 15.924883,12.728842 12.299,9.594988 12.299,5.740001 c 0,-3.744629 2.902988,-5.255543 3.859818,-5.518671 M 12.088966,9.081529 C 9.839264,3.888911 13.252642,1.066373 13.252642,1.066373 m -2.170676,7.603426 c -1.434242,-2.807382 0.0023,-5.877407 0.0023,-5.877407 m 5.73655,10.501454 c -1.549967,0.145966 -2.993423,-1.847865 -2.993423,-1.847865 M 9.977966,8.108237 C 9.228546,5.915159 9.815739,4.396168 9.815739,4.396168"
           sodipodi:nodetypes="zzzccsccccsccsccsccsccscccccccc" /></g></g><g
       aria-label="e"
       transform="matrix(1.0194192,0,0,0.98095073,0.09821622,-9.3441108)"
       id="text900-3"
       style="font-size:11.0739px;font-family:Delius;-inkscape-font-specification:'Delius, Normal';fill:#f9f9f9;stroke-width:0.245238;stroke-linecap:round;stroke-linejoin:bevel" /></g></svg>
