<?xml version="1.0" encoding="UTF-8" standalone="no"?>
<!-- Created with Inkscape (http://www.inkscape.org/) -->

<svg
   width="16.933332mm"
   height="16.933332mm"
   viewBox="0 0 16.933332 16.933332"
   version="1.1"
   id="svg5"
   sodipodi:docname="secondary_pattern.svg"
   inkscape:version="1.2.2 (732a01da63, 2022-12-09)"
   xmlns:inkscape="http://www.inkscape.org/namespaces/inkscape"
   xmlns:sodipodi="http://sodipodi.sourceforge.net/DTD/sodipodi-0.dtd"
   xmlns="http://www.w3.org/2000/svg"
   xmlns:svg="http://www.w3.org/2000/svg">
  <sodipodi:namedview
     id="namedview7"
     pagecolor="#505050"
     bordercolor="#ffffff"
     borderopacity="1"
     inkscape:showpageshadow="0"
     inkscape:pageopacity="0"
     inkscape:pagecheckerboard="1"
     inkscape:deskcolor="#505050"
     inkscape:document-units="mm"
     showgrid="false"
     inkscape:zoom="22.121661"
     inkscape:cx="50.945542"
     inkscape:cy="13.945607"
     inkscape:window-width="1895"
     inkscape:window-height="961"
     inkscape:window-x="0"
     inkscape:window-y="0"
     inkscape:window-maximized="0"
     inkscape:current-layer="layer1" />
  <defs
     id="defs2" />
  <g
     inkscape:label="Camada 1"
     inkscape:groupmode="layer"
     id="layer1">
    <path
       id="path24323"
       style="fill:#ffffff;fill-opacity:0.80810797;stroke:none;stroke-width:0.127067;stroke-linecap:round;stroke-linejoin:round;stroke-dasharray:none;stroke-opacity:0.01;paint-order:fill markers stroke;opacity:0.05"
       d="M 0 0 L 0 0.40669352 A 0.4068371 0.40683717 0 0 0 0.40669352 0 L 0 0 z M 1.4748454 0 A 0.4068371 0.40683717 0 0 0 1.8815389 0.40669352 A 0.4068371 0.40683717 0 0 0 2.2882324 0 L 1.8815389 0 L 1.4748454 0 z M 3.3558675 0 A 0.4068371 0.40683717 0 0 0 3.7630778 0.40669352 A 0.4068371 0.40683717 0 0 0 4.1697713 0 L 3.7630778 0 L 3.3558675 0 z M 5.2374064 0 A 0.4068371 0.40683717 0 0 0 5.6446167 0.40669352 A 0.4068371 0.40683717 0 0 0 6.0513102 0 L 5.6446167 0 L 5.2374064 0 z M 7.1189453 0 A 0.4068371 0.40683717 0 0 0 7.5261556 0.40669352 A 0.4068371 0.40683717 0 0 0 7.9328491 0 L 7.5261556 0 L 7.1189453 0 z M 9.0004842 0 A 0.4068371 0.40683717 0 0 0 9.4071777 0.40669352 A 0.4068371 0.40683717 0 0 0 9.814388 0 L 9.4071777 0 L 9.0004842 0 z M 10.882023 0 A 0.4068371 0.40683717 0 0 0 11.288717 0.40669352 A 0.4068371 0.40683717 0 0 0 11.695927 0 L 11.288717 0 L 10.882023 0 z M 12.763562 0 A 0.4068371 0.40683717 0 0 0 13.170256 0.40669352 A 0.4068371 0.40683717 0 0 0 13.577466 0 L 13.170256 0 L 12.763562 0 z M 14.645101 0 A 0.4068371 0.40683717 0 0 0 15.051794 0.40669352 A 0.4068371 0.40683717 0 0 0 15.458488 0 L 15.051794 0 L 14.645101 0 z M 16.52664 0 A 0.4068371 0.40683717 0 0 0 16.933333 0.40669352 L 16.933333 0 L 16.52664 0 z M 0 1.4748454 L 0 1.8815389 L 0 2.2882324 A 0.4068371 0.40683717 0 0 0 0.40669352 1.8815389 A 0.4068371 0.40683717 0 0 0 0 1.4748454 z M 1.8815389 1.4748454 A 0.4068371 0.40683717 0 0 0 1.4748454 1.8815389 A 0.4068371 0.40683717 0 0 0 1.8815389 2.2882324 A 0.4068371 0.40683717 0 0 0 2.2882324 1.8815389 A 0.4068371 0.40683717 0 0 0 1.8815389 1.4748454 z M 3.7630778 1.4748454 A 0.4068371 0.40683717 0 0 0 3.3558675 1.8815389 A 0.4068371 0.40683717 0 0 0 3.7630778 2.2882324 A 0.4068371 0.40683717 0 0 0 4.1697713 1.8815389 A 0.4068371 0.40683717 0 0 0 3.7630778 1.4748454 z M 5.6446167 1.4748454 A 0.4068371 0.40683717 0 0 0 5.2374064 1.8815389 A 0.4068371 0.40683717 0 0 0 5.6446167 2.2882324 A 0.4068371 0.40683717 0 0 0 6.0513102 1.8815389 A 0.4068371 0.40683717 0 0 0 5.6446167 1.4748454 z M 7.5261556 1.4748454 A 0.4068371 0.40683717 0 0 0 7.1189453 1.8815389 A 0.4068371 0.40683717 0 0 0 7.5261556 2.2882324 A 0.4068371 0.40683717 0 0 0 7.9328491 1.8815389 A 0.4068371 0.40683717 0 0 0 7.5261556 1.4748454 z M 9.4071777 1.4748454 A 0.4068371 0.40683717 0 0 0 9.0004842 1.8815389 A 0.4068371 0.40683717 0 0 0 9.4071777 2.2882324 A 0.4068371 0.40683717 0 0 0 9.814388 1.8815389 A 0.4068371 0.40683717 0 0 0 9.4071777 1.4748454 z M 11.288717 1.4748454 A 0.4068371 0.40683717 0 0 0 10.882023 1.8815389 A 0.4068371 0.40683717 0 0 0 11.288717 2.2882324 A 0.4068371 0.40683717 0 0 0 11.695927 1.8815389 A 0.4068371 0.40683717 0 0 0 11.288717 1.4748454 z M 13.170256 1.4748454 A 0.4068371 0.40683717 0 0 0 12.763562 1.8815389 A 0.4068371 0.40683717 0 0 0 13.170256 2.2882324 A 0.4068371 0.40683717 0 0 0 13.577466 1.8815389 A 0.4068371 0.40683717 0 0 0 13.170256 1.4748454 z M 15.051794 1.4748454 A 0.4068371 0.40683717 0 0 0 14.645101 1.8815389 A 0.4068371 0.40683717 0 0 0 15.051794 2.2882324 A 0.4068371 0.40683717 0 0 0 15.458488 1.8815389 A 0.4068371 0.40683717 0 0 0 15.051794 1.4748454 z M 16.933333 1.4748454 A 0.4068371 0.40683717 0 0 0 16.52664 1.8815389 A 0.4068371 0.40683717 0 0 0 16.933333 2.2882324 L 16.933333 1.8815389 L 16.933333 1.4748454 z M 0 3.3558675 L 0 3.7630778 L 0 4.1697713 A 0.4068371 0.40683717 0 0 0 0.40669352 3.7630778 A 0.4068371 0.40683717 0 0 0 0 3.3558675 z M 1.8815389 3.3558675 A 0.4068371 0.40683717 0 0 0 1.4748454 3.7630778 A 0.4068371 0.40683717 0 0 0 1.8815389 4.1697713 A 0.4068371 0.40683717 0 0 0 2.2882324 3.7630778 A 0.4068371 0.40683717 0 0 0 1.8815389 3.3558675 z M 3.7630778 3.3558675 A 0.4068371 0.40683717 0 0 0 3.3558675 3.7630778 A 0.4068371 0.40683717 0 0 0 3.7630778 4.1697713 A 0.4068371 0.40683717 0 0 0 4.1697713 3.7630778 A 0.4068371 0.40683717 0 0 0 3.7630778 3.3558675 z M 5.6446167 3.3558675 A 0.4068371 0.40683717 0 0 0 5.2374064 3.7630778 A 0.4068371 0.40683717 0 0 0 5.6446167 4.1697713 A 0.4068371 0.40683717 0 0 0 6.0513102 3.7630778 A 0.4068371 0.40683717 0 0 0 5.6446167 3.3558675 z M 7.5261556 3.3558675 A 0.4068371 0.40683717 0 0 0 7.1189453 3.7630778 A 0.4068371 0.40683717 0 0 0 7.5261556 4.1697713 A 0.4068371 0.40683717 0 0 0 7.9328491 3.7630778 A 0.4068371 0.40683717 0 0 0 7.5261556 3.3558675 z M 9.4071777 3.3558675 A 0.4068371 0.40683717 0 0 0 9.0004842 3.7630778 A 0.4068371 0.40683717 0 0 0 9.4071777 4.1697713 A 0.4068371 0.40683717 0 0 0 9.814388 3.7630778 A 0.4068371 0.40683717 0 0 0 9.4071777 3.3558675 z M 11.288717 3.3558675 A 0.4068371 0.40683717 0 0 0 10.882023 3.7630778 A 0.4068371 0.40683717 0 0 0 11.288717 4.1697713 A 0.4068371 0.40683717 0 0 0 11.695927 3.7630778 A 0.4068371 0.40683717 0 0 0 11.288717 3.3558675 z M 13.170256 3.3558675 A 0.4068371 0.40683717 0 0 0 12.763562 3.7630778 A 0.4068371 0.40683717 0 0 0 13.170256 4.1697713 A 0.4068371 0.40683717 0 0 0 13.577466 3.7630778 A 0.4068371 0.40683717 0 0 0 13.170256 3.3558675 z M 15.051794 3.3558675 A 0.4068371 0.40683717 0 0 0 14.645101 3.7630778 A 0.4068371 0.40683717 0 0 0 15.051794 4.1697713 A 0.4068371 0.40683717 0 0 0 15.458488 3.7630778 A 0.4068371 0.40683717 0 0 0 15.051794 3.3558675 z M 16.933333 3.3558675 A 0.4068371 0.40683717 0 0 0 16.52664 3.7630778 A 0.4068371 0.40683717 0 0 0 16.933333 4.1697713 L 16.933333 3.7630778 L 16.933333 3.3558675 z M 0 5.2374064 L 0 5.6446167 L 0 6.0513102 A 0.4068371 0.40683717 0 0 0 0.40669352 5.6446167 A 0.4068371 0.40683717 0 0 0 0 5.2374064 z M 1.8815389 5.2374064 A 0.4068371 0.40683717 0 0 0 1.4748454 5.6446167 A 0.4068371 0.40683717 0 0 0 1.8815389 6.0513102 A 0.4068371 0.40683717 0 0 0 2.2882324 5.6446167 A 0.4068371 0.40683717 0 0 0 1.8815389 5.2374064 z M 3.7630778 5.2374064 A 0.4068371 0.40683717 0 0 0 3.3558675 5.6446167 A 0.4068371 0.40683717 0 0 0 3.7630778 6.0513102 A 0.4068371 0.40683717 0 0 0 4.1697713 5.6446167 A 0.4068371 0.40683717 0 0 0 3.7630778 5.2374064 z M 5.6446167 5.2374064 A 0.4068371 0.40683717 0 0 0 5.2374064 5.6446167 A 0.4068371 0.40683717 0 0 0 5.6446167 6.0513102 A 0.4068371 0.40683717 0 0 0 6.0513102 5.6446167 A 0.4068371 0.40683717 0 0 0 5.6446167 5.2374064 z M 7.5261556 5.2374064 A 0.4068371 0.40683717 0 0 0 7.1189453 5.6446167 A 0.4068371 0.40683717 0 0 0 7.5261556 6.0513102 A 0.4068371 0.40683717 0 0 0 7.9328491 5.6446167 A 0.4068371 0.40683717 0 0 0 7.5261556 5.2374064 z M 9.4071777 5.2374064 A 0.4068371 0.40683717 0 0 0 9.0004842 5.6446167 A 0.4068371 0.40683717 0 0 0 9.4071777 6.0513102 A 0.4068371 0.40683717 0 0 0 9.814388 5.6446167 A 0.4068371 0.40683717 0 0 0 9.4071777 5.2374064 z M 11.288717 5.2374064 A 0.4068371 0.40683717 0 0 0 10.882023 5.6446167 A 0.4068371 0.40683717 0 0 0 11.288717 6.0513102 A 0.4068371 0.40683717 0 0 0 11.695927 5.6446167 A 0.4068371 0.40683717 0 0 0 11.288717 5.2374064 z M 13.170256 5.2374064 A 0.4068371 0.40683717 0 0 0 12.763562 5.6446167 A 0.4068371 0.40683717 0 0 0 13.170256 6.0513102 A 0.4068371 0.40683717 0 0 0 13.577466 5.6446167 A 0.4068371 0.40683717 0 0 0 13.170256 5.2374064 z M 15.051794 5.2374064 A 0.4068371 0.40683717 0 0 0 14.645101 5.6446167 A 0.4068371 0.40683717 0 0 0 15.051794 6.0513102 A 0.4068371 0.40683717 0 0 0 15.458488 5.6446167 A 0.4068371 0.40683717 0 0 0 15.051794 5.2374064 z M 16.933333 5.2374064 A 0.4068371 0.40683717 0 0 0 16.52664 5.6446167 A 0.4068371 0.40683717 0 0 0 16.933333 6.0513102 L 16.933333 5.6446167 L 16.933333 5.2374064 z M 0 7.1189453 L 0 7.5261556 L 0 7.9328491 A 0.4068371 0.40683717 0 0 0 0.40669352 7.5261556 A 0.4068371 0.40683717 0 0 0 0 7.1189453 z M 1.8815389 7.1189453 A 0.4068371 0.40683717 0 0 0 1.4748454 7.5261556 A 0.4068371 0.40683717 0 0 0 1.8815389 7.9328491 A 0.4068371 0.40683717 0 0 0 2.2882324 7.5261556 A 0.4068371 0.40683717 0 0 0 1.8815389 7.1189453 z M 3.7630778 7.1189453 A 0.4068371 0.40683717 0 0 0 3.3558675 7.5261556 A 0.4068371 0.40683717 0 0 0 3.7630778 7.9328491 A 0.4068371 0.40683717 0 0 0 4.1697713 7.5261556 A 0.4068371 0.40683717 0 0 0 3.7630778 7.1189453 z M 5.6446167 7.1189453 A 0.4068371 0.40683717 0 0 0 5.2374064 7.5261556 A 0.4068371 0.40683717 0 0 0 5.6446167 7.9328491 A 0.4068371 0.40683717 0 0 0 6.0513102 7.5261556 A 0.4068371 0.40683717 0 0 0 5.6446167 7.1189453 z M 7.5261556 7.1189453 A 0.4068371 0.40683717 0 0 0 7.1189453 7.5261556 A 0.4068371 0.40683717 0 0 0 7.5261556 7.9328491 A 0.4068371 0.40683717 0 0 0 7.9328491 7.5261556 A 0.4068371 0.40683717 0 0 0 7.5261556 7.1189453 z M 9.4071777 7.1189453 A 0.4068371 0.40683717 0 0 0 9.0004842 7.5261556 A 0.4068371 0.40683717 0 0 0 9.4071777 7.9328491 A 0.4068371 0.40683717 0 0 0 9.814388 7.5261556 A 0.4068371 0.40683717 0 0 0 9.4071777 7.1189453 z M 11.288717 7.1189453 A 0.4068371 0.40683717 0 0 0 10.882023 7.5261556 A 0.4068371 0.40683717 0 0 0 11.288717 7.9328491 A 0.4068371 0.40683717 0 0 0 11.695927 7.5261556 A 0.4068371 0.40683717 0 0 0 11.288717 7.1189453 z M 13.170256 7.1189453 A 0.4068371 0.40683717 0 0 0 12.763562 7.5261556 A 0.4068371 0.40683717 0 0 0 13.170256 7.9328491 A 0.4068371 0.40683717 0 0 0 13.577466 7.5261556 A 0.4068371 0.40683717 0 0 0 13.170256 7.1189453 z M 15.051794 7.1189453 A 0.4068371 0.40683717 0 0 0 14.645101 7.5261556 A 0.4068371 0.40683717 0 0 0 15.051794 7.9328491 A 0.4068371 0.40683717 0 0 0 15.458488 7.5261556 A 0.4068371 0.40683717 0 0 0 15.051794 7.1189453 z M 16.933333 7.1189453 A 0.4068371 0.40683717 0 0 0 16.52664 7.5261556 A 0.4068371 0.40683717 0 0 0 16.933333 7.9328491 L 16.933333 7.5261556 L 16.933333 7.1189453 z M 0 9.0004842 L 0 9.4071777 L 0 9.814388 A 0.4068371 0.40683717 0 0 0 0.40669352 9.4071777 A 0.4068371 0.40683717 0 0 0 0 9.0004842 z M 1.8815389 9.0004842 A 0.4068371 0.40683717 0 0 0 1.4748454 9.4071777 A 0.4068371 0.40683717 0 0 0 1.8815389 9.814388 A 0.4068371 0.40683717 0 0 0 2.2882324 9.4071777 A 0.4068371 0.40683717 0 0 0 1.8815389 9.0004842 z M 3.7630778 9.0004842 A 0.4068371 0.40683717 0 0 0 3.3558675 9.4071777 A 0.4068371 0.40683717 0 0 0 3.7630778 9.814388 A 0.4068371 0.40683717 0 0 0 4.1697713 9.4071777 A 0.4068371 0.40683717 0 0 0 3.7630778 9.0004842 z M 5.6446167 9.0004842 A 0.4068371 0.40683717 0 0 0 5.2374064 9.4071777 A 0.4068371 0.40683717 0 0 0 5.6446167 9.814388 A 0.4068371 0.40683717 0 0 0 6.0513102 9.4071777 A 0.4068371 0.40683717 0 0 0 5.6446167 9.0004842 z M 7.5261556 9.0004842 A 0.4068371 0.40683717 0 0 0 7.1189453 9.4071777 A 0.4068371 0.40683717 0 0 0 7.5261556 9.814388 A 0.4068371 0.40683717 0 0 0 7.9328491 9.4071777 A 0.4068371 0.40683717 0 0 0 7.5261556 9.0004842 z M 9.4071777 9.0004842 A 0.4068371 0.40683717 0 0 0 9.0004842 9.4071777 A 0.4068371 0.40683717 0 0 0 9.4071777 9.814388 A 0.4068371 0.40683717 0 0 0 9.814388 9.4071777 A 0.4068371 0.40683717 0 0 0 9.4071777 9.0004842 z M 11.288717 9.0004842 A 0.4068371 0.40683717 0 0 0 10.882023 9.4071777 A 0.4068371 0.40683717 0 0 0 11.288717 9.814388 A 0.4068371 0.40683717 0 0 0 11.695927 9.4071777 A 0.4068371 0.40683717 0 0 0 11.288717 9.0004842 z M 13.170256 9.0004842 A 0.4068371 0.40683717 0 0 0 12.763562 9.4071777 A 0.4068371 0.40683717 0 0 0 13.170256 9.814388 A 0.4068371 0.40683717 0 0 0 13.577466 9.4071777 A 0.4068371 0.40683717 0 0 0 13.170256 9.0004842 z M 15.051794 9.0004842 A 0.4068371 0.40683717 0 0 0 14.645101 9.4071777 A 0.4068371 0.40683717 0 0 0 15.051794 9.814388 A 0.4068371 0.40683717 0 0 0 15.458488 9.4071777 A 0.4068371 0.40683717 0 0 0 15.051794 9.0004842 z M 16.933333 9.0004842 A 0.4068371 0.40683717 0 0 0 16.52664 9.4071777 A 0.4068371 0.40683717 0 0 0 16.933333 9.814388 L 16.933333 9.4071777 L 16.933333 9.0004842 z M 0 10.882023 L 0 11.288717 L 0 11.695927 A 0.4068371 0.40683717 0 0 0 0.40669352 11.288717 A 0.4068371 0.40683717 0 0 0 0 10.882023 z M 1.8815389 10.882023 A 0.4068371 0.40683717 0 0 0 1.4748454 11.288717 A 0.4068371 0.40683717 0 0 0 1.8815389 11.695927 A 0.4068371 0.40683717 0 0 0 2.2882324 11.288717 A 0.4068371 0.40683717 0 0 0 1.8815389 10.882023 z M 3.7630778 10.882023 A 0.4068371 0.40683717 0 0 0 3.3558675 11.288717 A 0.4068371 0.40683717 0 0 0 3.7630778 11.695927 A 0.4068371 0.40683717 0 0 0 4.1697713 11.288717 A 0.4068371 0.40683717 0 0 0 3.7630778 10.882023 z M 5.6446167 10.882023 A 0.4068371 0.40683717 0 0 0 5.2374064 11.288717 A 0.4068371 0.40683717 0 0 0 5.6446167 11.695927 A 0.4068371 0.40683717 0 0 0 6.0513102 11.288717 A 0.4068371 0.40683717 0 0 0 5.6446167 10.882023 z M 7.5261556 10.882023 A 0.4068371 0.40683717 0 0 0 7.1189453 11.288717 A 0.4068371 0.40683717 0 0 0 7.5261556 11.695927 A 0.4068371 0.40683717 0 0 0 7.9328491 11.288717 A 0.4068371 0.40683717 0 0 0 7.5261556 10.882023 z M 9.4071777 10.882023 A 0.4068371 0.40683717 0 0 0 9.0004842 11.288717 A 0.4068371 0.40683717 0 0 0 9.4071777 11.695927 A 0.4068371 0.40683717 0 0 0 9.814388 11.288717 A 0.4068371 0.40683717 0 0 0 9.4071777 10.882023 z M 11.288717 10.882023 A 0.4068371 0.40683717 0 0 0 10.882023 11.288717 A 0.4068371 0.40683717 0 0 0 11.288717 11.695927 A 0.4068371 0.40683717 0 0 0 11.695927 11.288717 A 0.4068371 0.40683717 0 0 0 11.288717 10.882023 z M 13.170256 10.882023 A 0.4068371 0.40683717 0 0 0 12.763562 11.288717 A 0.4068371 0.40683717 0 0 0 13.170256 11.695927 A 0.4068371 0.40683717 0 0 0 13.577466 11.288717 A 0.4068371 0.40683717 0 0 0 13.170256 10.882023 z M 15.051794 10.882023 A 0.4068371 0.40683717 0 0 0 14.645101 11.288717 A 0.4068371 0.40683717 0 0 0 15.051794 11.695927 A 0.4068371 0.40683717 0 0 0 15.458488 11.288717 A 0.4068371 0.40683717 0 0 0 15.051794 10.882023 z M 16.933333 10.882023 A 0.4068371 0.40683717 0 0 0 16.52664 11.288717 A 0.4068371 0.40683717 0 0 0 16.933333 11.695927 L 16.933333 11.288717 L 16.933333 10.882023 z M 0 12.763562 L 0 13.170256 L 0 13.577466 A 0.4068371 0.40683717 0 0 0 0.40669352 13.170256 A 0.4068371 0.40683717 0 0 0 0 12.763562 z M 1.8815389 12.763562 A 0.4068371 0.40683717 0 0 0 1.4748454 13.170256 A 0.4068371 0.40683717 0 0 0 1.8815389 13.577466 A 0.4068371 0.40683717 0 0 0 2.2882324 13.170256 A 0.4068371 0.40683717 0 0 0 1.8815389 12.763562 z M 3.7630778 12.763562 A 0.4068371 0.40683717 0 0 0 3.3558675 13.170256 A 0.4068371 0.40683717 0 0 0 3.7630778 13.577466 A 0.4068371 0.40683717 0 0 0 4.1697713 13.170256 A 0.4068371 0.40683717 0 0 0 3.7630778 12.763562 z M 5.6446167 12.763562 A 0.4068371 0.40683717 0 0 0 5.2374064 13.170256 A 0.4068371 0.40683717 0 0 0 5.6446167 13.577466 A 0.4068371 0.40683717 0 0 0 6.0513102 13.170256 A 0.4068371 0.40683717 0 0 0 5.6446167 12.763562 z M 7.5261556 12.763562 A 0.4068371 0.40683717 0 0 0 7.1189453 13.170256 A 0.4068371 0.40683717 0 0 0 7.5261556 13.577466 A 0.4068371 0.40683717 0 0 0 7.9328491 13.170256 A 0.4068371 0.40683717 0 0 0 7.5261556 12.763562 z M 9.4071777 12.763562 A 0.4068371 0.40683717 0 0 0 9.0004842 13.170256 A 0.4068371 0.40683717 0 0 0 9.4071777 13.577466 A 0.4068371 0.40683717 0 0 0 9.814388 13.170256 A 0.4068371 0.40683717 0 0 0 9.4071777 12.763562 z M 11.288717 12.763562 A 0.4068371 0.40683717 0 0 0 10.882023 13.170256 A 0.4068371 0.40683717 0 0 0 11.288717 13.577466 A 0.4068371 0.40683717 0 0 0 11.695927 13.170256 A 0.4068371 0.40683717 0 0 0 11.288717 12.763562 z M 13.170256 12.763562 A 0.4068371 0.40683717 0 0 0 12.763562 13.170256 A 0.4068371 0.40683717 0 0 0 13.170256 13.577466 A 0.4068371 0.40683717 0 0 0 13.577466 13.170256 A 0.4068371 0.40683717 0 0 0 13.170256 12.763562 z M 15.051794 12.763562 A 0.4068371 0.40683717 0 0 0 14.645101 13.170256 A 0.4068371 0.40683717 0 0 0 15.051794 13.577466 A 0.4068371 0.40683717 0 0 0 15.458488 13.170256 A 0.4068371 0.40683717 0 0 0 15.051794 12.763562 z M 16.933333 12.763562 A 0.4068371 0.40683717 0 0 0 16.52664 13.170256 A 0.4068371 0.40683717 0 0 0 16.933333 13.577466 L 16.933333 13.170256 L 16.933333 12.763562 z M 0 14.645101 L 0 15.051794 L 0 15.458488 A 0.4068371 0.40683717 0 0 0 0.40669352 15.051794 A 0.4068371 0.40683717 0 0 0 0 14.645101 z M 1.8815389 14.645101 A 0.4068371 0.40683717 0 0 0 1.4748454 15.051794 A 0.4068371 0.40683717 0 0 0 1.8815389 15.458488 A 0.4068371 0.40683717 0 0 0 2.2882324 15.051794 A 0.4068371 0.40683717 0 0 0 1.8815389 14.645101 z M 3.7630778 14.645101 A 0.4068371 0.40683717 0 0 0 3.3558675 15.051794 A 0.4068371 0.40683717 0 0 0 3.7630778 15.458488 A 0.4068371 0.40683717 0 0 0 4.1697713 15.051794 A 0.4068371 0.40683717 0 0 0 3.7630778 14.645101 z M 5.6446167 14.645101 A 0.4068371 0.40683717 0 0 0 5.2374064 15.051794 A 0.4068371 0.40683717 0 0 0 5.6446167 15.458488 A 0.4068371 0.40683717 0 0 0 6.0513102 15.051794 A 0.4068371 0.40683717 0 0 0 5.6446167 14.645101 z M 7.5261556 14.645101 A 0.4068371 0.40683717 0 0 0 7.1189453 15.051794 A 0.4068371 0.40683717 0 0 0 7.5261556 15.458488 A 0.4068371 0.40683717 0 0 0 7.9328491 15.051794 A 0.4068371 0.40683717 0 0 0 7.5261556 14.645101 z M 9.4071777 14.645101 A 0.4068371 0.40683717 0 0 0 9.0004842 15.051794 A 0.4068371 0.40683717 0 0 0 9.4071777 15.458488 A 0.4068371 0.40683717 0 0 0 9.814388 15.051794 A 0.4068371 0.40683717 0 0 0 9.4071777 14.645101 z M 11.288717 14.645101 A 0.4068371 0.40683717 0 0 0 10.882023 15.051794 A 0.4068371 0.40683717 0 0 0 11.288717 15.458488 A 0.4068371 0.40683717 0 0 0 11.695927 15.051794 A 0.4068371 0.40683717 0 0 0 11.288717 14.645101 z M 13.170256 14.645101 A 0.4068371 0.40683717 0 0 0 12.763562 15.051794 A 0.4068371 0.40683717 0 0 0 13.170256 15.458488 A 0.4068371 0.40683717 0 0 0 13.577466 15.051794 A 0.4068371 0.40683717 0 0 0 13.170256 14.645101 z M 15.051794 14.645101 A 0.4068371 0.40683717 0 0 0 14.645101 15.051794 A 0.4068371 0.40683717 0 0 0 15.051794 15.458488 A 0.4068371 0.40683717 0 0 0 15.458488 15.051794 A 0.4068371 0.40683717 0 0 0 15.051794 14.645101 z M 16.933333 14.645101 A 0.4068371 0.40683717 0 0 0 16.52664 15.051794 A 0.4068371 0.40683717 0 0 0 16.933333 15.458488 L 16.933333 15.051794 L 16.933333 14.645101 z M 0 16.52664 L 0 16.933333 L 0.40669352 16.933333 A 0.4068371 0.40683717 0 0 0 0 16.52664 z M 1.8815389 16.52664 A 0.4068371 0.40683717 0 0 0 1.4748454 16.933333 L 1.8815389 16.933333 L 2.2882324 16.933333 A 0.4068371 0.40683717 0 0 0 1.8815389 16.52664 z M 3.7630778 16.52664 A 0.4068371 0.40683717 0 0 0 3.3558675 16.933333 L 3.7630778 16.933333 L 4.1697713 16.933333 A 0.4068371 0.40683717 0 0 0 3.7630778 16.52664 z M 5.6446167 16.52664 A 0.4068371 0.40683717 0 0 0 5.2374064 16.933333 L 5.6446167 16.933333 L 6.0513102 16.933333 A 0.4068371 0.40683717 0 0 0 5.6446167 16.52664 z M 7.5261556 16.52664 A 0.4068371 0.40683717 0 0 0 7.1189453 16.933333 L 7.5261556 16.933333 L 7.9328491 16.933333 A 0.4068371 0.40683717 0 0 0 7.5261556 16.52664 z M 9.4071777 16.52664 A 0.4068371 0.40683717 0 0 0 9.0004842 16.933333 L 9.4071777 16.933333 L 9.814388 16.933333 A 0.4068371 0.40683717 0 0 0 9.4071777 16.52664 z M 11.288717 16.52664 A 0.4068371 0.40683717 0 0 0 10.882023 16.933333 L 11.288717 16.933333 L 11.695927 16.933333 A 0.4068371 0.40683717 0 0 0 11.288717 16.52664 z M 13.170256 16.52664 A 0.4068371 0.40683717 0 0 0 12.763562 16.933333 L 13.170256 16.933333 L 13.577466 16.933333 A 0.4068371 0.40683717 0 0 0 13.170256 16.52664 z M 15.051794 16.52664 A 0.4068371 0.40683717 0 0 0 14.645101 16.933333 L 15.051794 16.933333 L 15.458488 16.933333 A 0.4068371 0.40683717 0 0 0 15.051794 16.52664 z M 16.933333 16.52664 A 0.4068371 0.40683717 0 0 0 16.52664 16.933333 L 16.933333 16.933333 L 16.933333 16.52664 z " />
  </g>
</svg>
